<svg width="1822" height="1819" viewBox="0 0 1822 1819" fill="none" xmlns="http://www.w3.org/2000/svg">
<g clip-path="url(#clip0)">
<path d="M218.185 841.848L15.4423 984.189C39.6375 1276.83 206.432 1550.69 480.413 1700.22L458.327 1453.56L675.935 1315.42C543.808 1238.46 462.012 1104.74 446.449 961.116L218.185 841.848Z" fill="#00447B" fill-opacity="0.27"/>
<path d="M1606.26 979.818L1808.75 837.568C1784.59 546.207 1618.81 273.55 1346.87 123.715L1369.23 374.285L1154.56 510.643C1282.82 588.01 1362.16 719.319 1377.7 860.514L1606.26 979.818Z" fill="#00447B" fill-opacity="0.66"/>
<path d="M1321.3 339.208L1299.36 92.7221C1034.95 -32.0351 715.931 -24.7931 450.198 135.799L678.38 241.717L689.134 495.808C820.264 423.416 973.653 420.358 1103.7 477.499L1321.3 339.208Z" fill="#00447B" fill-opacity="0.8"/>
<path d="M1718.89 1308.96C1785.83 1173.32 1815.3 1028.93 1811.49 887.627L1609.46 1029.57L1380.46 909.848C1380.71 979.884 1365.35 1051.16 1332.14 1118.31C1295.82 1191.9 1242.64 1251.85 1179.67 1295.56L1190.48 1552.2L1415.65 1656.67C1541.19 1572.12 1647.12 1454.55 1718.89 1308.96Z" fill="#00447B" fill-opacity="0.49"/>
<path d="M397.088 173.41C276.522 257.447 174.87 372.173 105.313 513.221C38.4603 648.695 8.93661 792.955 12.7086 934.13L214.945 791.973L443.773 911.61C443.615 841.827 459.068 770.808 492.114 703.998C526.369 634.597 575.457 577.58 633.667 534.595L622.953 278.207L397.088 173.41Z" fill="#00447B" fill-opacity="0.17"/>
<path d="M503.096 1475.7L525.206 1723.21C806.309 1857.23 1123.02 1832.59 1372.96 1683.97L1149.12 1580.02L1138.25 1321.25C1013.26 1389.97 858.929 1400.54 720.036 1338.09L503.096 1475.7Z" fill="#00447B" fill-opacity="0.4"/>
<circle cx="910.608" cy="909.965" r="317.018" fill="#00447B"/>
</g>
<defs>
<clipPath id="clip0">
<rect width="1821" height="1818" fill="white" transform="translate(0.996094 0.994141)"/>
</clipPath>
</defs>
</svg>
