<svg width="367" height="367" viewBox="0 0 367 367" fill="none" xmlns="http://www.w3.org/2000/svg">
<g clip-path="url(#clip0)">
<path d="M214.083 290.542H152.917C148.696 290.542 145.271 293.967 145.271 298.188C145.271 302.408 148.696 305.833 152.917 305.833H214.083C218.304 305.833 221.729 302.408 221.729 298.188C221.729 293.967 218.304 290.542 214.083 290.542ZM214.083 321.125H152.917C148.696 321.125 145.271 324.55 145.271 328.771C145.271 332.991 148.696 336.417 152.917 336.417H214.083C218.304 336.417 221.729 332.991 221.729 328.771C221.729 324.55 218.304 321.125 214.083 321.125ZM217.906 351.708H149.094L167.26 363.666C169.615 365.777 173.071 367 176.665 367H190.351C193.929 367 197.4 365.777 199.755 363.666L217.906 351.708ZM275.25 140.699C275.25 195.275 226.103 232.189 226.103 275.25H140.898C140.898 232.189 91.7502 195.275 91.7502 140.699C91.7502 83.7678 137.595 52.4351 183.454 52.4351C229.345 52.4351 275.25 83.7983 275.25 140.699ZM336.417 130.132V151.112H297.607C297.912 147.702 298.188 144.262 298.188 140.699C298.188 137.075 297.928 133.603 297.652 130.147H336.417V130.132ZM173.591 29.9258V0H194.556V30.0328C190.855 29.6964 187.155 29.4976 183.454 29.4976C180.167 29.4976 176.879 29.6505 173.591 29.9258ZM116.354 49.7132L100.451 20.0474L118.923 10.1384L134.781 39.6972C128.389 42.465 122.211 45.8291 116.354 49.7132V49.7132ZM278.232 76.2443L307.928 54.9277L320.147 71.9779L288.737 94.5025C285.817 87.9271 282.269 81.8563 278.232 76.2443ZM232.204 39.7125L248.077 10.1384L266.549 20.0474L250.631 49.7285C244.789 45.8444 238.611 42.4955 232.204 39.7125V39.7125ZM78.2476 94.5025L46.8385 71.9932L59.0566 54.943L88.753 76.2443C84.716 81.841 81.1836 87.9118 78.2476 94.5025ZM287.85 189.663L323.847 204.251L315.987 223.687L278.905 208.67C282.116 202.599 285.144 196.253 287.85 189.663V189.663ZM87.4073 207.324L51.3802 223.534L42.7862 204.404L78.5687 188.317C81.2142 194.938 84.242 201.238 87.4073 207.324V207.324ZM69.3937 151.112H30.5835V130.132H69.3479C69.0726 133.588 68.8127 137.075 68.8127 140.699C68.8127 144.262 69.0879 147.702 69.3937 151.112V151.112Z" fill="#00447B" fill-opacity="0.66"/>
</g>
<defs>
<clipPath id="clip0">
<rect width="367" height="367" fill="white"/>
</clipPath>
</defs>
</svg>
