<svg width="372" height="372" viewBox="0 0 372 372" fill="none" xmlns="http://www.w3.org/2000/svg">
<path fill-rule="evenodd" clip-rule="evenodd" d="M54.25 253.317L70.835 287.525L108.5 292.718L81.0805 319.067L87.7765 356.5L54.25 338.567L20.7235 356.5L27.4195 319.067L0 292.718L37.665 287.525L54.25 253.317V253.317ZM186 253.317L202.585 287.525L240.25 292.718L212.83 319.067L219.527 356.5L186 338.567L152.473 356.5L159.17 319.067L131.75 292.718L169.415 287.525L186 253.317ZM317.75 253.317L334.335 287.525L372 292.718L344.581 319.067L351.277 356.5L317.75 338.567L284.223 356.5L290.919 319.067L263.5 292.718L301.165 287.525L317.75 253.317ZM302.358 201.5H302.203C302.544 125.457 267.39 158.534 267.39 98.022C267.39 74.6635 282.627 62 302.235 62C331.204 62 351.354 89.6985 323.919 141.499C314.914 158.534 333.529 162.564 353.524 167.183C370.853 171.182 372 179.66 372 194.323V232.5H302.358V201.5V201.5ZM0 232.5V194.323C0 179.66 1.147 171.182 18.476 167.183C38.471 162.564 57.0865 158.534 48.081 141.499C20.646 89.6985 40.796 62 69.7655 62C89.373 62 104.61 74.6635 104.61 98.022C104.61 158.534 69.4555 125.457 69.7965 201.5H69.874V232.5H0ZM93 232.5V191.843C93 172.344 94.55 161.076 117.614 155.744C143.716 149.715 169.446 144.336 157.062 121.505C120.389 53.8625 146.614 15.5 185.984 15.5C224.595 15.5 251.487 52.4365 214.907 121.505C202.895 144.197 227.71 149.591 254.355 155.744C277.45 161.076 278.985 172.36 278.985 191.905L279 232.5H93V232.5Z" fill="#00447B" fill-opacity="0.66"/>
</svg>
