<svg width="422" height="422" viewBox="0 0 422 422" fill="none" xmlns="http://www.w3.org/2000/svg">
<g clip-path="url(#clip0)">
<path fill-rule="evenodd" clip-rule="evenodd" d="M321.863 359.02C304.42 369.834 283.883 376.076 261.886 376.076C198.797 376.076 147.595 324.75 147.595 261.538C147.595 198.326 198.797 147.018 261.886 147.018C324.958 147.018 376.178 198.326 376.178 261.538C376.178 283.587 369.953 304.177 359.175 321.655L422 384.604L384.706 421.986L321.863 359.02ZM165.301 351.354C108.753 348.013 59.3613 317.892 29.6279 273.512L106.098 229.36C112.78 238.029 121.026 245.432 130.416 251.111C130.152 254.575 130.011 258.074 130.011 261.591C130.011 296.265 143.41 327.809 165.301 351.354ZM261.886 182.694C305.563 182.694 341.011 218.213 341.011 261.977C341.011 305.742 305.563 341.261 261.886 341.261C218.209 341.261 182.761 305.742 182.761 261.977C182.761 218.213 218.209 182.694 261.886 182.694V182.694ZM235.511 305.584H217.928V270.347H235.511V305.584ZM270.678 305.584H253.095V252.729H270.678V305.584ZM305.844 305.584H288.261V218.371H305.844V305.584ZM167.042 0.214355V88.3596C122.644 92.773 87.9167 130.278 87.9167 175.837C87.9167 189.675 91.1168 202.757 96.8314 214.415L20.5901 258.426C7.45533 233.791 0 205.676 0 175.837C0 81.7483 74.0786 4.80361 167.042 0.214355ZM250.949 130.173C236.953 107.209 212.723 91.1553 184.625 88.3596V0.214355C273.896 4.62777 345.759 75.7524 351.315 164.724C327.806 142.991 296.385 129.716 261.886 129.716C258.211 129.716 254.554 129.874 250.949 130.173V130.173Z" fill="#00447B" fill-opacity="0.66"/>
</g>
<defs>
<clipPath id="clip0">
<rect width="422" height="422" fill="white"/>
</clipPath>
</defs>
</svg>
